<svg width="1920" height="1080" viewBox="0 0 1920 1080" fill="none" xmlns="http://www.w3.org/2000/svg">
<rect width="1920" height="1080" fill="white"/>
<g clip-path="url(#clip0_4_47)">
<path fill-rule="evenodd" clip-rule="evenodd" d="M-404.07 361.88L-338.776 364.617C-273.483 367.353 -142.895 372.826 -23.6436 353.044C95.6081 333.262 203.524 288.225 304.639 228.036C405.754 167.847 500.068 92.5057 603.45 37.3676C706.832 -17.7706 819.283 -52.7052 875.508 -70.1724L931.733 -87.6397L918.13 -117.945L859.638 -105.529C801.146 -93.1123 684.161 -68.2795 567.176 -43.4467C450.192 -18.614 333.207 6.21879 216.223 31.0516C99.2379 55.8843 -17.7468 80.7171 -134.731 105.55C-251.716 130.383 -368.701 155.215 -427.193 167.632L-485.685 180.048L-404.07 361.88Z" fill="#00E3F0" fill-opacity="0.58"/>
<path fill-rule="evenodd" clip-rule="evenodd" d="M1440.74 -0.356737L1361.15 12.9973C1281.55 26.3513 1122.37 53.0594 967.127 104.403C811.886 155.747 660.59 231.726 496.145 225.587C331.7 219.447 154.105 131.189 -3.7651 166.109C-161.636 201.029 -299.783 359.127 -368.856 438.176L-437.929 517.225L-516.824 24.5137L-435.917 19.3715C-355.009 14.2293 -193.194 3.94492 -31.3784 -6.33946C130.437 -16.6238 292.252 -26.9082 454.068 -37.1926C615.883 -47.477 777.698 -57.7614 939.514 -68.0458C1101.33 -78.3301 1263.14 -88.6145 1344.05 -93.7567L1424.96 -98.8989L1440.74 -0.356737Z" fill="url(#paint0_linear_4_47)"/>
</g>
<defs>
<linearGradient id="paint0_linear_4_47" x1="-391.18" y1="278.796" x2="761.943" y2="265.72" gradientUnits="userSpaceOnUse">
<stop stop-color="#0078F0"/>
<stop offset="1" stop-color="#00E3F0"/>
</linearGradient>
<clipPath id="clip0_4_47">
<rect width="1920" height="351" fill="white"/>
</clipPath>
</defs>
</svg>
